<svg width="102" height="36" viewBox="0 0 102 36" fill="none" xmlns="http://www.w3.org/2000/svg">
<path d="M69.5 6.92651H73.3V15.0265H80.5V6.92651H84.3V26.7265H80.6V18.1265H73.4V26.7265H69.6V6.92651H69.5Z" fill="#4D1D68"/>
<path d="M90.4 6.92651H94.2V23.6265H101.3V26.7265H90.4V6.92651V6.92651Z" fill="#4D1D68"/>
<path d="M46.5 1.82654H46.1V34.5265H46.5V1.82654Z" fill="#4D1D68"/>
<path d="M65.9 23.6265H59.8V6.92651H55.9V26.7265H65.9V23.6265Z" fill="#4D1D68"/>
<path d="M10.2 6.52659C10 6.52659 9.8 6.42659 9.8 6.22659L8.5 0.626587C8.5 0.426587 8.6 0.226587 8.8 0.226587L9.1 0.126587C9.3 0.126587 9.5 0.226586 9.5 0.426586L10.7 6.02659C10.7 6.22659 10.6 6.42659 10.4 6.42659L10.2 6.52659Z" fill="url(#paint0_radial_2309_8398)"/>
<path d="M12.4 5.9266C12.4 6.1266 12.2 6.3266 12 6.2266H11.7C11.5 6.2266 11.3 6.0266 11.4 5.8266L11.8 0.3266C11.8 0.1266 12 -0.0734015 12.2 0.0265985H12.5C12.7 0.0265985 12.8 0.226598 12.8 0.426598L12.4 5.9266Z" fill="url(#paint1_radial_2309_8398)"/>
<path d="M15.8 7.1266C15.7 7.3266 15.5 7.3266 15.3 7.2266L15 7.0266C14.8 6.9266 14.8 6.7266 14.9 6.5266L17.7 1.7266C17.8 1.5266 18 1.5266 18.2 1.6266L18.5 1.8266C18.7 1.9266 18.7 2.1266 18.6 2.3266L15.8 7.1266Z" fill="url(#paint2_radial_2309_8398)"/>
<path d="M17.4 8.22666C17.3 8.42666 17 8.42666 16.9 8.22666L16.6 8.02666C16.4 7.92666 16.4 7.62666 16.6 7.52666L20.3 3.22666C20.4 3.02666 20.7 3.02666 20.8 3.22666L21.1 3.42666C21.3 3.52666 21.3 3.82666 21.1 3.92666L17.4 8.22666Z" fill="url(#paint3_radial_2309_8398)"/>
<path d="M18.9 9.52654C18.7 9.62654 18.5 9.62654 18.4 9.52654L18.1 9.22654C18 9.02654 18 8.82654 18.1 8.72654L22.3 5.02654C22.5 4.92654 22.7 4.92654 22.8 5.02654L23.1 5.32654C23.2 5.52654 23.2 5.72654 23.1 5.82654L18.9 9.52654Z" fill="url(#paint4_radial_2309_8398)"/>
<path d="M20.3 11.0265C20.1 11.1265 19.9 11.1265 19.8 10.9265L19.6 10.5265C19.5 10.3265 19.5 10.1265 19.7 10.0265L24.4 6.82655C24.6 6.72655 24.8 6.72655 24.9 6.92655L25.1 7.32655C25.2 7.52655 25.2 7.72655 25 7.82655L20.3 11.0265Z" fill="url(#paint5_radial_2309_8398)"/>
<path d="M21.5 12.7266C21.3 12.8266 21.1 12.7266 21 12.5266L20.8 12.1266C20.7 11.9266 20.8 11.7266 21 11.6266L26.4 8.82658C26.6 8.72658 26.8 8.82658 26.9 9.02658L27.1 9.42658C27.2 9.62658 27.1 9.82658 26.9 9.92658L21.5 12.7266Z" fill="url(#paint6_radial_2309_8398)"/>
<path d="M22.6 14.6267C22.4 14.7267 22.2 14.6267 22.1 14.4267L21.9 13.9267C21.8 13.7267 21.9 13.5267 22.1 13.4267L28.4 11.0267C28.6 10.9267 28.8 11.0267 28.9 11.2267L29.1 11.7267C29.2 11.9267 29.1 12.1267 28.9 12.2267L22.6 14.6267Z" fill="url(#paint7_radial_2309_8398)"/>
<path d="M23.4 16.6267C23.2 16.6267 23 16.5267 23 16.3267L22.9 15.8267C22.9 15.6267 23 15.4267 23.2 15.4267L30.1 13.8267C30.3 13.8267 30.5 13.9267 30.5 14.1267L30.6 14.6267C30.6 14.8267 30.5 15.0267 30.3 15.0267L23.4 16.6267Z" fill="url(#paint8_radial_2309_8398)"/>
<path d="M23.9 18.8266C23.7 18.8266 23.5 18.7266 23.5 18.5266L23.4 18.0266C23.4 17.8266 23.5 17.6266 23.7 17.6266L31.6 16.7266C31.8 16.7266 32 16.8266 32 17.0266L32.1 17.5266C32.1 17.7266 32 17.9266 31.8 17.9266L23.9 18.8266Z" fill="url(#paint9_radial_2309_8398)"/>
<path d="M32.2 20.7266C32.2 20.9266 32 21.1266 31.8 21.1266L24 20.9266C23.8 20.9266 23.6 20.7266 23.6 20.5266V20.0266C23.6 19.8266 23.8 19.6266 24 19.6266L31.8 19.8266C32 19.8266 32.2 20.0266 32.2 20.2266V20.7266Z" fill="url(#paint10_radial_2309_8398)"/>
<path d="M31 23.8267C31 24.0267 30.8 24.1267 30.6 24.1267L23.9 23.0267C23.7 23.0267 23.6 22.8267 23.6 22.6267L23.7 22.1267C23.7 21.9267 23.9 21.8267 24.1 21.8267L30.8 22.9267C31 22.9267 31.1 23.1267 31.1 23.3267L31 23.8267Z" fill="url(#paint11_radial_2309_8398)"/>
<path d="M29.2 26.5266C29.1 26.7266 28.9 26.8266 28.7 26.7266L23.3 24.8266C23.1 24.7266 23 24.5266 23.1 24.3266L23.2 23.9266C23.3 23.7266 23.5 23.6266 23.7 23.7266L29.1 25.6266C29.3 25.7266 29.4 25.9266 29.3 26.1266L29.2 26.5266Z" fill="url(#paint12_radial_2309_8398)"/>
<path d="M27.4 29.1266C27.3 29.3266 27.1 29.3266 26.9 29.2266L22.5 26.6266C22.3 26.5266 22.3 26.3266 22.4 26.1266L22.6 25.7266C22.7 25.5266 22.9 25.5266 23.1 25.6266L27.5 28.2266C27.7 28.3266 27.7 28.5266 27.6 28.7266L27.4 29.1266Z" fill="url(#paint13_radial_2309_8398)"/>
<path d="M25.3 31.8267C25.2 31.9267 24.9 31.9267 24.8 31.8267L21.3 27.8267C21.2 27.6267 21.2 27.4267 21.3 27.3267L21.6 27.0267C21.8 26.9267 22 26.9267 22.1 27.0267L25.6 31.0267C25.7 31.2267 25.7 31.4267 25.6 31.5267L25.3 31.8267Z" fill="url(#paint14_radial_2309_8398)"/>
<path d="M22.5 34.2266C22.3 34.3266 22.1 34.2266 22 34.0266L19.8 28.4266C19.7 28.2266 19.8 28.0266 20 27.9266L20.3 27.8266C20.5 27.7266 20.7 27.8266 20.8 28.0266L23 33.6266C23.1 33.8266 23 34.0266 22.8 34.1266L22.5 34.2266Z" fill="url(#paint15_radial_2309_8398)"/>
<path d="M18.7 35.7266C18.5 35.7266 18.3 35.5266 18.3 35.3266L18.2 28.5266C18.2 28.3266 18.4 28.1266 18.6 28.1266H18.9C19.1 28.1266 19.3 28.3266 19.3 28.5266L19.4 35.3266C19.4 35.5266 19.2 35.7266 19 35.7266H18.7Z" fill="url(#paint16_radial_2309_8398)"/>
<path d="M15.8 34.3266C15.7 34.5266 15.5 34.6266 15.3 34.5266L15.1 34.4266C14.9 34.3266 14.8 34.1266 14.9 33.9266L16.8 28.0266C16.9 27.8266 17.1 27.7266 17.3 27.8266L17.5 27.9266C17.7 28.0266 17.8 28.2266 17.7 28.4266L15.8 34.3266Z" fill="url(#paint17_radial_2309_8398)"/>
<path d="M13.1 32.4265C13 32.6265 12.7 32.6266 12.6 32.5266L12.5 32.4265C12.3 32.3265 12.3 32.1265 12.4 31.9265L15.6 27.4265C15.7 27.2265 15.9 27.2266 16.1 27.3266L16.2 27.4265C16.4 27.5265 16.4 27.7265 16.3 27.9265L13.1 32.4265Z" fill="url(#paint18_radial_2309_8398)"/>
<path d="M11.1 30.3266C10.9 30.4266 10.7 30.4266 10.6 30.2266C10.5 30.0266 10.5 29.8266 10.7 29.7266L14.8 26.5266C15 26.4266 15.2 26.4266 15.3 26.6266C15.4 26.8266 15.4 27.0266 15.2 27.1266L11.1 30.3266Z" fill="url(#paint19_radial_2309_8398)"/>
<path d="M9.1 28.1266C8.9 28.2266 8.7 28.1266 8.7 27.9266C8.6 27.7266 8.8 27.5266 8.9 27.5266C8.9 27.5266 9.7 27.3266 11.4 26.6266C13.1 25.9266 14.1 25.4266 14.1 25.4266C14.3 25.3266 14.5 25.4266 14.6 25.5266C14.7 25.7266 14.6 25.9266 14.4 26.0266C14.4 26.0266 13.4 26.5266 11.7 27.2266C9.9 27.9266 9.1 28.1266 9.1 28.1266Z" fill="url(#paint20_radial_2309_8398)"/>
<path d="M13.6 23.8267C13.5 23.8267 13.2 23.8267 13 23.8267C13 23.8267 11.7 23.8266 10.1 23.6266C8 23.3266 6.5 22.9266 6.5 22.9266C6.3 22.8266 6.2 22.7266 6.2 22.6266C6.2 22.5266 6.4 22.4267 6.6 22.5267C6.6 22.5267 8.1 22.9266 10.1 23.2266C12.4 23.5266 13.3 23.4266 13.3 23.4266C13.5 23.4266 13.7 23.5266 13.7 23.6266C13.8 23.7266 13.7 23.8267 13.6 23.8267Z" fill="url(#paint21_radial_2309_8398)"/>
<path d="M14.6 16.4266C14.6 16.5266 14.4 16.6266 14.3 16.5266C14.3 16.5266 13 16.0266 11.6 15.3266C10.1 14.6266 8.8 13.8266 8.8 13.8266C8.7 13.7266 8.7 13.6266 8.7 13.5266C8.8 13.4266 8.9 13.4266 9 13.4266C9 13.4266 10.3 14.2266 11.8 14.9266C13.2 15.6266 14.5 16.1266 14.5 16.1266C14.6 16.1266 14.7 16.3266 14.6 16.4266Z" fill="url(#paint22_radial_2309_8398)"/>
<path d="M15.3 14.7266C15.3 14.8266 15.1 14.8266 15 14.8266L9.8 12.0266C9.7 11.9266 9.7 11.8266 9.7 11.7266C9.7 11.6266 9.9 11.6266 10 11.6266L15.2 14.4266C15.3 14.5266 15.3 14.6266 15.3 14.7266Z" fill="url(#paint23_radial_2309_8398)"/>
<path d="M16 13.3266C16 13.4266 15.8 13.4266 15.8 13.3266L10.8 10.3266C10.7 10.2266 10.7 10.1266 10.7 10.1266C10.7 10.0266 10.9 10.0266 10.9 10.1266L15.9 13.1266C16 13.1266 16.1 13.2266 16 13.3266Z" fill="url(#paint24_radial_2309_8398)"/>
<path d="M16.9 11.9266C16.9 12.0266 16.7 12.0266 16.7 11.9266C16.7 11.9266 15.3 10.9266 14.3 10.2266C13.3 9.52664 12.1 8.82664 12.1 8.82664C12 8.72664 12 8.62664 12 8.62664C12 8.52664 12.1 8.52664 12.2 8.62664C12.2 8.62664 13.4 9.32664 14.5 10.0266C15.5 10.7266 17 11.7266 17 11.7266C16.9 11.8266 17 11.9266 16.9 11.9266Z" fill="url(#paint25_radial_2309_8398)"/>
<path d="M17.8 10.8266C17.7 10.9266 17.6 10.9266 17.6 10.8266C17.6 10.8266 17.6 10.8266 17.5 10.7266C17.1 10.3266 16.2 9.62659 15.4 9.02659C14.4 8.32659 13.3 7.52659 13.3 7.52659C13.2 7.42659 13.2 7.32659 13.2 7.32659C13.2 7.22659 13.4 7.22659 13.4 7.32659C13.4 7.32659 14.5 8.12659 15.5 8.82659C16.3 9.42659 17.2 10.1266 17.6 10.5266C17.7 10.6266 17.7 10.6266 17.7 10.6266C17.8 10.7266 17.8 10.8266 17.8 10.8266Z" fill="url(#paint26_radial_2309_8398)"/>
<path d="M23.2 4.22665C23.1 4.22665 23 4.22665 22.9 4.12665C22.9 4.12665 22.6 3.52665 22.1 2.82665C21.5 2.02665 21.2 1.72665 21.2 1.72665C21.1 1.62665 21.1 1.52665 21.2 1.42665C21.3 1.32665 21.4 1.42665 21.5 1.42665C21.5 1.42665 21.8 1.72665 22.4 2.52665C23 3.32665 23.3 3.92665 23.3 3.92665C23.4 4.02665 23.3 4.12665 23.2 4.22665Z" fill="url(#paint27_radial_2309_8398)"/>
<path d="M25.3 6.02661C25.2 6.02661 25.1 6.02661 25.1 5.82661C25.1 5.82661 24.9 4.92661 24.3 3.22661C23.8 1.62661 23.4 0.826612 23.4 0.826612C23.4 0.726612 23.4 0.626611 23.5 0.526611C23.6 0.526611 23.7 0.526612 23.8 0.626612C23.8 0.626612 24.2 1.62661 24.7 3.12661C25.3 4.92661 25.5 5.82661 25.5 5.82661C25.5 5.92661 25.4 6.02661 25.3 6.02661Z" fill="url(#paint28_radial_2309_8398)"/>
<path d="M26.5 5.92661C26.4 5.92661 26.3 5.82661 26.3 5.72661L26 0.226612C26 0.126612 26.1 0.0266113 26.2 0.0266113H26.3C26.4 0.0266113 26.5 0.126612 26.5 0.226612L26.8 5.72661C26.8 5.82661 26.7 5.92661 26.5 5.92661Z" fill="url(#paint29_radial_2309_8398)"/>
<path d="M28.1 5.92656C28.1 6.02656 28 6.12656 27.9 6.12656H27.8C27.7 6.12656 27.6 6.02656 27.6 5.92656L28.8 0.426561C28.8 0.326561 28.9 0.226562 29 0.226562H29.1C29.2 0.226562 29.3 0.326561 29.3 0.426561L28.1 5.92656Z" fill="url(#paint30_radial_2309_8398)"/>
<path d="M30.2 7.42661C30.1 7.52661 30 7.52661 29.9 7.42661L29.8 7.32661C29.7 7.22661 29.7 7.12661 29.8 7.02661L34 2.72661C34.1 2.62661 34.2 2.62661 34.3 2.72661L34.4 2.82661C34.5 2.92661 34.5 3.02661 34.4 3.12661L30.2 7.42661Z" fill="url(#paint31_radial_2309_8398)"/>
<path d="M29.2 6.52664C29.1 6.62664 29 6.62664 28.9 6.62664L28.8 6.52664C28.7 6.42664 28.7 6.32664 28.7 6.22664L31.6 1.02664C31.7 0.926636 31.8 0.926636 31.9 0.926636L32 1.02664C32.1 1.12664 32.1 1.22664 32.1 1.32664L29.2 6.52664Z" fill="url(#paint32_radial_2309_8398)"/>
<path d="M30.8 8.42665C30.7 8.52665 30.6 8.42665 30.5 8.32665L30.4 8.12665C30.3 8.02665 30.4 7.92665 30.5 7.82665L35.8 5.02665C35.9 4.92665 36 5.02665 36.1 5.12665L36.2 5.32665C36.3 5.42665 36.2 5.52665 36.1 5.62665L30.8 8.42665Z" fill="url(#paint33_radial_2309_8398)"/>
<path d="M31.2 9.62661C31.1 9.62661 31 9.52661 31 9.42661V9.22661C31 9.12661 31 9.02661 31.2 9.02661L36.9 8.02661C37 8.02661 37.1 8.12661 37.1 8.22661V8.42661C37.1 8.52661 37 8.62661 36.9 8.62661L31.2 9.62661Z" fill="url(#paint34_radial_2309_8398)"/>
<path d="M36.8 11.5267C36.8 11.6267 36.7 11.7267 36.6 11.7267C36.6 11.7267 35.6 11.4267 33.8 11.2267C31.8 10.9267 31.3 10.9267 31.3 10.9267C31.2 10.9267 31.1 10.8267 31.1 10.7267V10.5267C31.1 10.4267 31.2 10.3267 31.3 10.3267C31.3 10.3267 31.8 10.3267 33.9 10.6267C35.7 10.9267 36.8 11.1267 36.8 11.1267C36.9 11.1267 37 11.2267 36.9 11.3267L36.8 11.5267Z" fill="url(#paint35_radial_2309_8398)"/>
<path d="M35.9 14.8266C35.8 14.9266 35.7 14.9266 35.6 14.8266C35.6 14.8266 34.8 14.1266 33.3 13.2266C32.1 12.4266 31 11.8266 31 11.8266C30.9 11.7266 30.9 11.6266 30.9 11.5266L31 11.3266C31.1 11.2266 31.2 11.2266 31.3 11.2266C31.3 11.2266 32.4 11.8266 33.6 12.6266C35.1 13.6266 36 14.2266 36 14.2266C36.1 14.3266 36.1 14.4266 36 14.5266L35.9 14.8266Z" fill="url(#paint36_radial_2309_8398)"/>
<path d="M34.1 17.8266C34 17.9266 33.9 17.8266 33.8 17.7266C33.8 17.7266 33.1 16.4266 32 15.0266C31.2 13.8266 30.4 13.0266 30.4 13.0266C30.3 12.9266 30.3 12.8266 30.4 12.7266L30.6 12.6266C30.7 12.5266 30.8 12.5266 30.9 12.6266C30.9 12.6266 31.7 13.5266 32.5 14.7266C33.6 16.2266 34.3 17.5266 34.3 17.5266C34.4 17.6266 34.3 17.7266 34.2 17.8266H34.1Z" fill="url(#paint37_radial_2309_8398)"/>
<path d="M22.4 22.4267C22.4 22.6267 22.3 22.8267 22.1 22.8267C21.9 22.8267 21.8 22.6267 21.8 22.4267C21.8 22.4267 21.8 21.6267 21.7 20.3267C21.6 19.0267 21.4 18.2267 21.4 18.2267C21.4 18.0267 21.5 17.8267 21.6 17.8267C21.8 17.8267 21.9 17.9267 22 18.1267C22 18.1267 22.2 18.9267 22.3 20.3267C22.4 21.6267 22.4 22.4267 22.4 22.4267Z" fill="url(#paint38_radial_2309_8398)"/>
<path d="M20.3 22.7266C20.3 22.9266 20.1 23.1266 20 23.1266C19.8 23.1266 19.7 22.9266 19.7 22.7266C19.7 22.7266 19.7 21.6266 19.7 20.5266C19.7 19.7266 19.6 18.3266 19.6 18.3266C19.6 18.1266 19.7 17.9266 19.9 17.9266C20.1 17.9266 20.2 18.0266 20.2 18.2266C20.2 18.2266 20.3 19.6266 20.3 20.4266C20.3 21.6266 20.3 22.7266 20.3 22.7266Z" fill="url(#paint39_radial_2309_8398)"/>
<path d="M18 22.8266C18 23.0266 17.8 23.1266 17.6 23.1266C17.4 23.1266 17.3 22.9266 17.3 22.7266C17.3 22.7266 17.4 21.7266 17.5 20.4266C17.6 19.4266 17.6 18.4266 17.6 18.4266C17.6 18.2266 17.8 18.0266 17.9 18.1266C18.1 18.1266 18.2 18.3266 18.2 18.5266C18.2 18.5266 18.1 19.5266 18.1 20.5266C18.1 21.7266 18 22.8266 18 22.8266Z" fill="url(#paint40_radial_2309_8398)"/>
<path d="M15.7 22.6266C15.7 22.8266 15.5 22.9266 15.3 22.9266C15.1 22.9266 15 22.7266 15 22.5266L15.8 18.2266C15.8 18.0266 16 17.9266 16.2 17.9266C16.4 17.9266 16.5 18.1266 16.5 18.3266L15.7 22.6266Z" fill="url(#paint41_radial_2309_8398)"/>
<path d="M13.2 22.3267C13.1 22.5267 12.9 22.6267 12.8 22.5267C12.6 22.4267 12.5 22.2267 12.6 22.0267L13.9 17.7267C14 17.5267 14.2 17.4267 14.3 17.5267C14.5 17.6267 14.6 17.8267 14.5 18.0267L13.2 22.3267Z" fill="url(#paint42_radial_2309_8398)"/>
<path d="M10.5 21.8267C10.4 22.0267 10.2 22.1267 10 22.0267C9.8 21.9267 9.7 21.7267 9.8 21.5267L11.9 17.2267C12 17.0267 12.2 16.9267 12.4 17.0267C12.6 17.1267 12.7 17.3267 12.6 17.5267L10.5 21.8267Z" fill="url(#paint43_radial_2309_8398)"/>
<path d="M7.6 21.0266C7.5 21.2266 7.3 21.2266 7.1 21.1266C6.9 21.0266 6.9 20.8266 7 20.6266L10.1 16.3266C10.2 16.1266 10.4 16.1266 10.6 16.2266C10.8 16.3266 10.8 16.5266 10.7 16.7266L7.6 21.0266Z" fill="url(#paint44_radial_2309_8398)"/>
<path d="M4.9 19.5266C4.8 19.6266 4.5 19.6266 4.4 19.5266C4.3 19.4266 4.3 19.1266 4.4 19.0266L8.5 15.2266C8.6 15.1266 8.9 15.1266 9 15.2266C9.1 15.3266 9.1 15.6266 9 15.7266L4.9 19.5266Z" fill="url(#paint45_radial_2309_8398)"/>
<path d="M2.7 17.4266C2.5 17.5266 2.3 17.5266 2.2 17.3266V17.2266C2.1 17.0266 2.1 16.8266 2.3 16.7266L7.1 13.7266C7.3 13.6266 7.5 13.6266 7.6 13.8266V13.9266C7.7 14.1266 7.7 14.3266 7.5 14.4266L2.7 17.4266Z" fill="url(#paint46_radial_2309_8398)"/>
<path d="M1.2 14.5267C0.999997 14.6267 0.799997 14.5267 0.699997 14.3267V14.2267C0.599997 14.0267 0.699996 13.8267 0.899996 13.7267L6.3 12.0267C6.5 11.9267 6.7 12.0267 6.8 12.2267V12.3267C6.9 12.5267 6.8 12.7267 6.6 12.8267L1.2 14.5267Z" fill="url(#paint47_radial_2309_8398)"/>
<path d="M0.4 11.3266C0.2 11.3266 0 11.1266 0 10.9266V10.8266C0 10.6266 0.2 10.4266 0.4 10.4266L6.1 10.2266C6.3 10.2266 6.5 10.4266 6.5 10.6266V10.7266C6.5 10.9266 6.3 11.1266 6.1 11.1266L0.4 11.3266Z" fill="url(#paint48_radial_2309_8398)"/>
<path d="M6.7 9.12661C6.6 9.32661 6.4 9.42661 6.2 9.32661L0.299999 7.62661C0.0999992 7.52661 -1.52364e-06 7.32661 0.0999985 7.12661V6.92661C0.199998 6.72661 0.399998 6.62661 0.499998 6.72661L6.4 8.42661C6.6 8.52661 6.7 8.72661 6.6 8.92661L6.7 9.12661Z" fill="url(#paint49_radial_2309_8398)"/>
<path d="M7.5 7.92655C7.4 8.12655 7.1 8.12655 7 8.02655L2.1 4.12655C1.9 4.02655 1.9 3.72655 2 3.62655L2.1 3.42655C2.2 3.22655 2.5 3.22655 2.6 3.32655L7.5 7.22655C7.7 7.32655 7.7 7.62655 7.6 7.72655L7.5 7.92655Z" fill="url(#paint50_radial_2309_8398)"/>
<path d="M8.7 7.02665C8.5 7.12665 8.3 7.02665 8.2 6.92665L5.2 1.62665C5.1 1.42665 5.2 1.22665 5.3 1.12665L5.5 1.02665C5.7 0.926651 5.9 1.02665 6 1.12665L9 6.42665C9.1 6.62665 9 6.82665 8.9 6.92665L8.7 7.02665Z" fill="url(#paint51_radial_2309_8398)"/>
<path d="M14.1 6.32663C14 6.52663 13.8 6.62663 13.6 6.52663L13.3 6.42663C13.1 6.32663 13 6.12663 13.1 5.92663L14.8 0.826633C14.9 0.626633 15.1 0.526633 15.3 0.626633L15.6 0.726633C15.8 0.826633 15.9 1.02663 15.8 1.22663L14.1 6.32663Z" fill="url(#paint52_radial_2309_8398)"/>
<path d="M7.6 25.6267C7.4 25.6267 7.2 25.6267 7.2 25.6267C7.2 25.6267 7.1 25.5267 7.1 25.3267C7.1 25.1267 7.3 25.0267 7.5 25.0267C7.5 25.0267 8.8 25.0267 10.5 24.8267C12.5 24.6267 13.8 24.3267 13.8 24.3267C14 24.3267 14.2 24.3267 14.2 24.5267C14.2 24.7267 14.1 24.8267 13.9 24.9267C13.9 24.9267 12.6 25.2267 10.5 25.4267C8.9 25.6267 7.6 25.6267 7.6 25.6267Z" fill="url(#paint53_radial_2309_8398)"/>
<defs>
<radialGradient id="paint0_radial_2309_8398" cx="0" cy="0" r="1" gradientUnits="userSpaceOnUse" gradientTransform="translate(19.3442 15.5043) scale(14.7181)">
<stop stop-color="#B0358B"/>
<stop offset="0.1561" stop-color="#AB3389"/>
<stop offset="0.3602" stop-color="#9B2F84"/>
<stop offset="0.5908" stop-color="#83297B"/>
<stop offset="0.8391" stop-color="#632271"/>
<stop offset="1" stop-color="#4D1D68"/>
</radialGradient>
<radialGradient id="paint1_radial_2309_8398" cx="0" cy="0" r="1" gradientUnits="userSpaceOnUse" gradientTransform="translate(19.3412 15.5054) scale(14.7159)">
<stop stop-color="#B0358B"/>
<stop offset="0.1561" stop-color="#AB3389"/>
<stop offset="0.3602" stop-color="#9B2F84"/>
<stop offset="0.5908" stop-color="#83297B"/>
<stop offset="0.8391" stop-color="#632271"/>
<stop offset="1" stop-color="#4D1D68"/>
</radialGradient>
<radialGradient id="paint2_radial_2309_8398" cx="0" cy="0" r="1" gradientUnits="userSpaceOnUse" gradientTransform="translate(19.3443 15.5045) scale(14.7175)">
<stop stop-color="#B0358B"/>
<stop offset="0.1561" stop-color="#AB3389"/>
<stop offset="0.3602" stop-color="#9B2F84"/>
<stop offset="0.5908" stop-color="#83297B"/>
<stop offset="0.8391" stop-color="#632271"/>
<stop offset="1" stop-color="#4D1D68"/>
</radialGradient>
<radialGradient id="paint3_radial_2309_8398" cx="0" cy="0" r="1" gradientUnits="userSpaceOnUse" gradientTransform="translate(19.3443 15.5041) scale(14.7163)">
<stop stop-color="#B0358B"/>
<stop offset="0.1561" stop-color="#AB3389"/>
<stop offset="0.3602" stop-color="#9B2F84"/>
<stop offset="0.5908" stop-color="#83297B"/>
<stop offset="0.8391" stop-color="#632271"/>
<stop offset="1" stop-color="#4D1D68"/>
</radialGradient>
<radialGradient id="paint4_radial_2309_8398" cx="0" cy="0" r="1" gradientUnits="userSpaceOnUse" gradientTransform="translate(19.344 15.5048) scale(14.7187)">
<stop stop-color="#B0358B"/>
<stop offset="0.1561" stop-color="#AB3389"/>
<stop offset="0.3602" stop-color="#9B2F84"/>
<stop offset="0.5908" stop-color="#83297B"/>
<stop offset="0.8391" stop-color="#632271"/>
<stop offset="1" stop-color="#4D1D68"/>
</radialGradient>
<radialGradient id="paint5_radial_2309_8398" cx="0" cy="0" r="1" gradientUnits="userSpaceOnUse" gradientTransform="translate(19.3439 15.5044) scale(14.718)">
<stop stop-color="#B0358B"/>
<stop offset="0.1561" stop-color="#AB3389"/>
<stop offset="0.3602" stop-color="#9B2F84"/>
<stop offset="0.5908" stop-color="#83297B"/>
<stop offset="0.8391" stop-color="#632271"/>
<stop offset="1" stop-color="#4D1D68"/>
</radialGradient>
<radialGradient id="paint6_radial_2309_8398" cx="0" cy="0" r="1" gradientUnits="userSpaceOnUse" gradientTransform="translate(19.3441 15.505) scale(14.7181)">
<stop stop-color="#B0358B"/>
<stop offset="0.1561" stop-color="#AB3389"/>
<stop offset="0.3602" stop-color="#9B2F84"/>
<stop offset="0.5908" stop-color="#83297B"/>
<stop offset="0.8391" stop-color="#632271"/>
<stop offset="1" stop-color="#4D1D68"/>
</radialGradient>
<radialGradient id="paint7_radial_2309_8398" cx="0" cy="0" r="1" gradientUnits="userSpaceOnUse" gradientTransform="translate(19.3437 15.5054) scale(14.7192)">
<stop stop-color="#B0358B"/>
<stop offset="0.1561" stop-color="#AB3389"/>
<stop offset="0.3602" stop-color="#9B2F84"/>
<stop offset="0.5908" stop-color="#83297B"/>
<stop offset="0.8391" stop-color="#632271"/>
<stop offset="1" stop-color="#4D1D68"/>
</radialGradient>
<radialGradient id="paint8_radial_2309_8398" cx="0" cy="0" r="1" gradientUnits="userSpaceOnUse" gradientTransform="translate(19.3445 15.5053) scale(14.7171)">
<stop stop-color="#B0358B"/>
<stop offset="0.1561" stop-color="#AB3389"/>
<stop offset="0.3602" stop-color="#9B2F84"/>
<stop offset="0.5908" stop-color="#83297B"/>
<stop offset="0.8391" stop-color="#632271"/>
<stop offset="1" stop-color="#4D1D68"/>
</radialGradient>
<radialGradient id="paint9_radial_2309_8398" cx="0" cy="0" r="1" gradientUnits="userSpaceOnUse" gradientTransform="translate(19.3453 15.5058) scale(14.7166)">
<stop stop-color="#B0358B"/>
<stop offset="0.1561" stop-color="#AB3389"/>
<stop offset="0.3602" stop-color="#9B2F84"/>
<stop offset="0.5908" stop-color="#83297B"/>
<stop offset="0.8391" stop-color="#632271"/>
<stop offset="1" stop-color="#4D1D68"/>
</radialGradient>
<radialGradient id="paint10_radial_2309_8398" cx="0" cy="0" r="1" gradientUnits="userSpaceOnUse" gradientTransform="translate(19.344 15.5051) scale(14.718)">
<stop stop-color="#B0358B"/>
<stop offset="0.1561" stop-color="#AB3389"/>
<stop offset="0.3602" stop-color="#9B2F84"/>
<stop offset="0.5908" stop-color="#83297B"/>
<stop offset="0.8391" stop-color="#632271"/>
<stop offset="1" stop-color="#4D1D68"/>
</radialGradient>
<radialGradient id="paint11_radial_2309_8398" cx="0" cy="0" r="1" gradientUnits="userSpaceOnUse" gradientTransform="translate(19.3448 15.5059) scale(14.7169)">
<stop stop-color="#B0358B"/>
<stop offset="0.1561" stop-color="#AB3389"/>
<stop offset="0.3602" stop-color="#9B2F84"/>
<stop offset="0.5908" stop-color="#83297B"/>
<stop offset="0.8391" stop-color="#632271"/>
<stop offset="1" stop-color="#4D1D68"/>
</radialGradient>
<radialGradient id="paint12_radial_2309_8398" cx="0" cy="0" r="1" gradientUnits="userSpaceOnUse" gradientTransform="translate(19.3439 15.5044) scale(14.7188)">
<stop stop-color="#B0358B"/>
<stop offset="0.1561" stop-color="#AB3389"/>
<stop offset="0.3602" stop-color="#9B2F84"/>
<stop offset="0.5908" stop-color="#83297B"/>
<stop offset="0.8391" stop-color="#632271"/>
<stop offset="1" stop-color="#4D1D68"/>
</radialGradient>
<radialGradient id="paint13_radial_2309_8398" cx="0" cy="0" r="1" gradientUnits="userSpaceOnUse" gradientTransform="translate(19.3444 15.5029) scale(14.7195)">
<stop stop-color="#B0358B"/>
<stop offset="0.1561" stop-color="#AB3389"/>
<stop offset="0.3602" stop-color="#9B2F84"/>
<stop offset="0.5908" stop-color="#83297B"/>
<stop offset="0.8391" stop-color="#632271"/>
<stop offset="1" stop-color="#4D1D68"/>
</radialGradient>
<radialGradient id="paint14_radial_2309_8398" cx="0" cy="0" r="1" gradientUnits="userSpaceOnUse" gradientTransform="translate(19.3443 15.5035) scale(14.7196)">
<stop stop-color="#B0358B"/>
<stop offset="0.1561" stop-color="#AB3389"/>
<stop offset="0.3602" stop-color="#9B2F84"/>
<stop offset="0.5908" stop-color="#83297B"/>
<stop offset="0.8391" stop-color="#632271"/>
<stop offset="1" stop-color="#4D1D68"/>
</radialGradient>
<radialGradient id="paint15_radial_2309_8398" cx="0" cy="0" r="1" gradientUnits="userSpaceOnUse" gradientTransform="translate(19.3444 15.5048) scale(14.7181)">
<stop stop-color="#B0358B"/>
<stop offset="0.1561" stop-color="#AB3389"/>
<stop offset="0.3602" stop-color="#9B2F84"/>
<stop offset="0.5908" stop-color="#83297B"/>
<stop offset="0.8391" stop-color="#632271"/>
<stop offset="1" stop-color="#4D1D68"/>
</radialGradient>
<radialGradient id="paint16_radial_2309_8398" cx="0" cy="0" r="1" gradientUnits="userSpaceOnUse" gradientTransform="translate(19.3439 15.5049) scale(14.7183)">
<stop stop-color="#B0358B"/>
<stop offset="0.1561" stop-color="#AB3389"/>
<stop offset="0.3602" stop-color="#9B2F84"/>
<stop offset="0.5908" stop-color="#83297B"/>
<stop offset="0.8391" stop-color="#632271"/>
<stop offset="1" stop-color="#4D1D68"/>
</radialGradient>
<radialGradient id="paint17_radial_2309_8398" cx="0" cy="0" r="1" gradientUnits="userSpaceOnUse" gradientTransform="translate(19.3444 15.5042) scale(14.7191)">
<stop stop-color="#B0358B"/>
<stop offset="0.1561" stop-color="#AB3389"/>
<stop offset="0.3602" stop-color="#9B2F84"/>
<stop offset="0.5908" stop-color="#83297B"/>
<stop offset="0.8391" stop-color="#632271"/>
<stop offset="1" stop-color="#4D1D68"/>
</radialGradient>
<radialGradient id="paint18_radial_2309_8398" cx="0" cy="0" r="1" gradientUnits="userSpaceOnUse" gradientTransform="translate(19.3448 15.5068) scale(14.7165)">
<stop stop-color="#B0358B"/>
<stop offset="0.1561" stop-color="#AB3389"/>
<stop offset="0.3602" stop-color="#9B2F84"/>
<stop offset="0.5908" stop-color="#83297B"/>
<stop offset="0.8391" stop-color="#632271"/>
<stop offset="1" stop-color="#4D1D68"/>
</radialGradient>
<radialGradient id="paint19_radial_2309_8398" cx="0" cy="0" r="1" gradientUnits="userSpaceOnUse" gradientTransform="translate(19.3436 15.5049) scale(14.7185)">
<stop stop-color="#B0358B"/>
<stop offset="0.1561" stop-color="#AB3389"/>
<stop offset="0.3602" stop-color="#9B2F84"/>
<stop offset="0.5908" stop-color="#83297B"/>
<stop offset="0.8391" stop-color="#632271"/>
<stop offset="1" stop-color="#4D1D68"/>
</radialGradient>
<radialGradient id="paint20_radial_2309_8398" cx="0" cy="0" r="1" gradientUnits="userSpaceOnUse" gradientTransform="translate(19.3431 15.5043) scale(14.7189)">
<stop stop-color="#B0358B"/>
<stop offset="0.1561" stop-color="#AB3389"/>
<stop offset="0.3602" stop-color="#9B2F84"/>
<stop offset="0.5908" stop-color="#83297B"/>
<stop offset="0.8391" stop-color="#632271"/>
<stop offset="1" stop-color="#4D1D68"/>
</radialGradient>
<radialGradient id="paint21_radial_2309_8398" cx="0" cy="0" r="1" gradientUnits="userSpaceOnUse" gradientTransform="translate(19.3448 15.5065) scale(14.7173)">
<stop stop-color="#B0358B"/>
<stop offset="0.1561" stop-color="#AB3389"/>
<stop offset="0.3602" stop-color="#9B2F84"/>
<stop offset="0.5908" stop-color="#83297B"/>
<stop offset="0.8391" stop-color="#632271"/>
<stop offset="1" stop-color="#4D1D68"/>
</radialGradient>
<radialGradient id="paint22_radial_2309_8398" cx="0" cy="0" r="1" gradientUnits="userSpaceOnUse" gradientTransform="translate(19.3446 15.5054) scale(14.7193)">
<stop stop-color="#B0358B"/>
<stop offset="0.1561" stop-color="#AB3389"/>
<stop offset="0.3602" stop-color="#9B2F84"/>
<stop offset="0.5908" stop-color="#83297B"/>
<stop offset="0.8391" stop-color="#632271"/>
<stop offset="1" stop-color="#4D1D68"/>
</radialGradient>
<radialGradient id="paint23_radial_2309_8398" cx="0" cy="0" r="1" gradientUnits="userSpaceOnUse" gradientTransform="translate(19.3442 15.5051) scale(14.718)">
<stop stop-color="#B0358B"/>
<stop offset="0.1561" stop-color="#AB3389"/>
<stop offset="0.3602" stop-color="#9B2F84"/>
<stop offset="0.5908" stop-color="#83297B"/>
<stop offset="0.8391" stop-color="#632271"/>
<stop offset="1" stop-color="#4D1D68"/>
</radialGradient>
<radialGradient id="paint24_radial_2309_8398" cx="0" cy="0" r="1" gradientUnits="userSpaceOnUse" gradientTransform="translate(19.3437 15.5054) scale(14.7177)">
<stop stop-color="#B0358B"/>
<stop offset="0.1561" stop-color="#AB3389"/>
<stop offset="0.3602" stop-color="#9B2F84"/>
<stop offset="0.5908" stop-color="#83297B"/>
<stop offset="0.8391" stop-color="#632271"/>
<stop offset="1" stop-color="#4D1D68"/>
</radialGradient>
<radialGradient id="paint25_radial_2309_8398" cx="0" cy="0" r="1" gradientUnits="userSpaceOnUse" gradientTransform="translate(19.3435 15.5053) scale(14.7186)">
<stop stop-color="#B0358B"/>
<stop offset="0.1561" stop-color="#AB3389"/>
<stop offset="0.3602" stop-color="#9B2F84"/>
<stop offset="0.5908" stop-color="#83297B"/>
<stop offset="0.8391" stop-color="#632271"/>
<stop offset="1" stop-color="#4D1D68"/>
</radialGradient>
<radialGradient id="paint26_radial_2309_8398" cx="0" cy="0" r="1" gradientUnits="userSpaceOnUse" gradientTransform="translate(19.3437 15.5048) scale(14.7169)">
<stop stop-color="#B0358B"/>
<stop offset="0.1561" stop-color="#AB3389"/>
<stop offset="0.3602" stop-color="#9B2F84"/>
<stop offset="0.5908" stop-color="#83297B"/>
<stop offset="0.8391" stop-color="#632271"/>
<stop offset="1" stop-color="#4D1D68"/>
</radialGradient>
<radialGradient id="paint27_radial_2309_8398" cx="0" cy="0" r="1" gradientUnits="userSpaceOnUse" gradientTransform="translate(19.3433 15.505) scale(14.7182)">
<stop stop-color="#B0358B"/>
<stop offset="0.1561" stop-color="#AB3389"/>
<stop offset="0.3602" stop-color="#9B2F84"/>
<stop offset="0.5908" stop-color="#83297B"/>
<stop offset="0.8391" stop-color="#632271"/>
<stop offset="1" stop-color="#4D1D68"/>
</radialGradient>
<radialGradient id="paint28_radial_2309_8398" cx="0" cy="0" r="1" gradientUnits="userSpaceOnUse" gradientTransform="translate(19.3443 15.5048) scale(14.7178)">
<stop stop-color="#B0358B"/>
<stop offset="0.1561" stop-color="#AB3389"/>
<stop offset="0.3602" stop-color="#9B2F84"/>
<stop offset="0.5908" stop-color="#83297B"/>
<stop offset="0.8391" stop-color="#632271"/>
<stop offset="1" stop-color="#4D1D68"/>
</radialGradient>
<radialGradient id="paint29_radial_2309_8398" cx="0" cy="0" r="1" gradientUnits="userSpaceOnUse" gradientTransform="translate(19.352 15.5031) scale(14.7105)">
<stop stop-color="#B0358B"/>
<stop offset="0.1561" stop-color="#AB3389"/>
<stop offset="0.3602" stop-color="#9B2F84"/>
<stop offset="0.5908" stop-color="#83297B"/>
<stop offset="0.8391" stop-color="#632271"/>
<stop offset="1" stop-color="#4D1D68"/>
</radialGradient>
<radialGradient id="paint30_radial_2309_8398" cx="0" cy="0" r="1" gradientUnits="userSpaceOnUse" gradientTransform="translate(19.3454 15.5055) scale(14.7171)">
<stop stop-color="#B0358B"/>
<stop offset="0.1561" stop-color="#AB3389"/>
<stop offset="0.3602" stop-color="#9B2F84"/>
<stop offset="0.5908" stop-color="#83297B"/>
<stop offset="0.8391" stop-color="#632271"/>
<stop offset="1" stop-color="#4D1D68"/>
</radialGradient>
<radialGradient id="paint31_radial_2309_8398" cx="0" cy="0" r="1" gradientUnits="userSpaceOnUse" gradientTransform="translate(19.3425 15.5055) scale(14.7196)">
<stop stop-color="#B0358B"/>
<stop offset="0.1561" stop-color="#AB3389"/>
<stop offset="0.3602" stop-color="#9B2F84"/>
<stop offset="0.5908" stop-color="#83297B"/>
<stop offset="0.8391" stop-color="#632271"/>
<stop offset="1" stop-color="#4D1D68"/>
</radialGradient>
<radialGradient id="paint32_radial_2309_8398" cx="0" cy="0" r="1" gradientUnits="userSpaceOnUse" gradientTransform="translate(19.3457 15.506) scale(14.7167)">
<stop stop-color="#B0358B"/>
<stop offset="0.1561" stop-color="#AB3389"/>
<stop offset="0.3602" stop-color="#9B2F84"/>
<stop offset="0.5908" stop-color="#83297B"/>
<stop offset="0.8391" stop-color="#632271"/>
<stop offset="1" stop-color="#4D1D68"/>
</radialGradient>
<radialGradient id="paint33_radial_2309_8398" cx="0" cy="0" r="1" gradientUnits="userSpaceOnUse" gradientTransform="translate(19.3438 15.5055) scale(14.7186)">
<stop stop-color="#B0358B"/>
<stop offset="0.1561" stop-color="#AB3389"/>
<stop offset="0.3602" stop-color="#9B2F84"/>
<stop offset="0.5908" stop-color="#83297B"/>
<stop offset="0.8391" stop-color="#632271"/>
<stop offset="1" stop-color="#4D1D68"/>
</radialGradient>
<radialGradient id="paint34_radial_2309_8398" cx="0" cy="0" r="1" gradientUnits="userSpaceOnUse" gradientTransform="translate(19.3453 15.5046) scale(14.7174)">
<stop stop-color="#B0358B"/>
<stop offset="0.1561" stop-color="#AB3389"/>
<stop offset="0.3602" stop-color="#9B2F84"/>
<stop offset="0.5908" stop-color="#83297B"/>
<stop offset="0.8391" stop-color="#632271"/>
<stop offset="1" stop-color="#4D1D68"/>
</radialGradient>
<radialGradient id="paint35_radial_2309_8398" cx="0" cy="0" r="1" gradientUnits="userSpaceOnUse" gradientTransform="translate(19.3439 15.5051) scale(14.718)">
<stop stop-color="#B0358B"/>
<stop offset="0.1561" stop-color="#AB3389"/>
<stop offset="0.3602" stop-color="#9B2F84"/>
<stop offset="0.5908" stop-color="#83297B"/>
<stop offset="0.8391" stop-color="#632271"/>
<stop offset="1" stop-color="#4D1D68"/>
</radialGradient>
<radialGradient id="paint36_radial_2309_8398" cx="0" cy="0" r="1" gradientUnits="userSpaceOnUse" gradientTransform="translate(19.3439 15.5053) scale(14.7186)">
<stop stop-color="#B0358B"/>
<stop offset="0.1561" stop-color="#AB3389"/>
<stop offset="0.3602" stop-color="#9B2F84"/>
<stop offset="0.5908" stop-color="#83297B"/>
<stop offset="0.8391" stop-color="#632271"/>
<stop offset="1" stop-color="#4D1D68"/>
</radialGradient>
<radialGradient id="paint37_radial_2309_8398" cx="0" cy="0" r="1" gradientUnits="userSpaceOnUse" gradientTransform="translate(19.3461 15.5046) scale(14.716)">
<stop stop-color="#B0358B"/>
<stop offset="0.1561" stop-color="#AB3389"/>
<stop offset="0.3602" stop-color="#9B2F84"/>
<stop offset="0.5908" stop-color="#83297B"/>
<stop offset="0.8391" stop-color="#632271"/>
<stop offset="1" stop-color="#4D1D68"/>
</radialGradient>
<radialGradient id="paint38_radial_2309_8398" cx="0" cy="0" r="1" gradientUnits="userSpaceOnUse" gradientTransform="translate(19.3432 15.5048) scale(14.7195)">
<stop stop-color="#B0358B"/>
<stop offset="0.1561" stop-color="#AB3389"/>
<stop offset="0.3602" stop-color="#9B2F84"/>
<stop offset="0.5908" stop-color="#83297B"/>
<stop offset="0.8391" stop-color="#632271"/>
<stop offset="1" stop-color="#4D1D68"/>
</radialGradient>
<radialGradient id="paint39_radial_2309_8398" cx="0" cy="0" r="1" gradientUnits="userSpaceOnUse" gradientTransform="translate(19.3451 15.506) scale(14.7163)">
<stop stop-color="#B0358B"/>
<stop offset="0.1561" stop-color="#AB3389"/>
<stop offset="0.3602" stop-color="#9B2F84"/>
<stop offset="0.5908" stop-color="#83297B"/>
<stop offset="0.8391" stop-color="#632271"/>
<stop offset="1" stop-color="#4D1D68"/>
</radialGradient>
<radialGradient id="paint40_radial_2309_8398" cx="0" cy="0" r="1" gradientUnits="userSpaceOnUse" gradientTransform="translate(19.3434 15.5047) scale(14.7195)">
<stop stop-color="#B0358B"/>
<stop offset="0.1561" stop-color="#AB3389"/>
<stop offset="0.3602" stop-color="#9B2F84"/>
<stop offset="0.5908" stop-color="#83297B"/>
<stop offset="0.8391" stop-color="#632271"/>
<stop offset="1" stop-color="#4D1D68"/>
</radialGradient>
<radialGradient id="paint41_radial_2309_8398" cx="0" cy="0" r="1" gradientUnits="userSpaceOnUse" gradientTransform="translate(19.3446 15.5054) scale(14.7173)">
<stop stop-color="#B0358B"/>
<stop offset="0.1561" stop-color="#AB3389"/>
<stop offset="0.3602" stop-color="#9B2F84"/>
<stop offset="0.5908" stop-color="#83297B"/>
<stop offset="0.8391" stop-color="#632271"/>
<stop offset="1" stop-color="#4D1D68"/>
</radialGradient>
<radialGradient id="paint42_radial_2309_8398" cx="0" cy="0" r="1" gradientUnits="userSpaceOnUse" gradientTransform="translate(19.3451 15.5051) scale(14.7197)">
<stop stop-color="#B0358B"/>
<stop offset="0.1561" stop-color="#AB3389"/>
<stop offset="0.3602" stop-color="#9B2F84"/>
<stop offset="0.5908" stop-color="#83297B"/>
<stop offset="0.8391" stop-color="#632271"/>
<stop offset="1" stop-color="#4D1D68"/>
</radialGradient>
<radialGradient id="paint43_radial_2309_8398" cx="0" cy="0" r="1" gradientUnits="userSpaceOnUse" gradientTransform="translate(19.3466 15.5056) scale(14.7192)">
<stop stop-color="#B0358B"/>
<stop offset="0.1561" stop-color="#AB3389"/>
<stop offset="0.3602" stop-color="#9B2F84"/>
<stop offset="0.5908" stop-color="#83297B"/>
<stop offset="0.8391" stop-color="#632271"/>
<stop offset="1" stop-color="#4D1D68"/>
</radialGradient>
<radialGradient id="paint44_radial_2309_8398" cx="0" cy="0" r="1" gradientUnits="userSpaceOnUse" gradientTransform="translate(19.3444 15.5054) scale(14.7186)">
<stop stop-color="#B0358B"/>
<stop offset="0.1561" stop-color="#AB3389"/>
<stop offset="0.3602" stop-color="#9B2F84"/>
<stop offset="0.5908" stop-color="#83297B"/>
<stop offset="0.8391" stop-color="#632271"/>
<stop offset="1" stop-color="#4D1D68"/>
</radialGradient>
<radialGradient id="paint45_radial_2309_8398" cx="0" cy="0" r="1" gradientUnits="userSpaceOnUse" gradientTransform="translate(19.3441 15.5049) scale(14.7186)">
<stop stop-color="#B0358B"/>
<stop offset="0.1561" stop-color="#AB3389"/>
<stop offset="0.3602" stop-color="#9B2F84"/>
<stop offset="0.5908" stop-color="#83297B"/>
<stop offset="0.8391" stop-color="#632271"/>
<stop offset="1" stop-color="#4D1D68"/>
</radialGradient>
<radialGradient id="paint46_radial_2309_8398" cx="0" cy="0" r="1" gradientUnits="userSpaceOnUse" gradientTransform="translate(19.3423 15.5051) scale(14.716)">
<stop stop-color="#B0358B"/>
<stop offset="0.1561" stop-color="#AB3389"/>
<stop offset="0.3602" stop-color="#9B2F84"/>
<stop offset="0.5908" stop-color="#83297B"/>
<stop offset="0.8391" stop-color="#632271"/>
<stop offset="1" stop-color="#4D1D68"/>
</radialGradient>
<radialGradient id="paint47_radial_2309_8398" cx="0" cy="0" r="1" gradientUnits="userSpaceOnUse" gradientTransform="translate(19.3435 15.5047) scale(14.7175)">
<stop stop-color="#B0358B"/>
<stop offset="0.1561" stop-color="#AB3389"/>
<stop offset="0.3602" stop-color="#9B2F84"/>
<stop offset="0.5908" stop-color="#83297B"/>
<stop offset="0.8391" stop-color="#632271"/>
<stop offset="1" stop-color="#4D1D68"/>
</radialGradient>
<radialGradient id="paint48_radial_2309_8398" cx="0" cy="0" r="1" gradientUnits="userSpaceOnUse" gradientTransform="translate(19.3463 15.5045) scale(14.7196)">
<stop stop-color="#B0358B"/>
<stop offset="0.1561" stop-color="#AB3389"/>
<stop offset="0.3602" stop-color="#9B2F84"/>
<stop offset="0.5908" stop-color="#83297B"/>
<stop offset="0.8391" stop-color="#632271"/>
<stop offset="1" stop-color="#4D1D68"/>
</radialGradient>
<radialGradient id="paint49_radial_2309_8398" cx="0" cy="0" r="1" gradientUnits="userSpaceOnUse" gradientTransform="translate(19.3418 15.5065) scale(14.7169)">
<stop stop-color="#B0358B"/>
<stop offset="0.1561" stop-color="#AB3389"/>
<stop offset="0.3602" stop-color="#9B2F84"/>
<stop offset="0.5908" stop-color="#83297B"/>
<stop offset="0.8391" stop-color="#632271"/>
<stop offset="1" stop-color="#4D1D68"/>
</radialGradient>
<radialGradient id="paint50_radial_2309_8398" cx="0" cy="0" r="1" gradientUnits="userSpaceOnUse" gradientTransform="translate(19.3454 15.5039) scale(14.7187)">
<stop stop-color="#B0358B"/>
<stop offset="0.1561" stop-color="#AB3389"/>
<stop offset="0.3602" stop-color="#9B2F84"/>
<stop offset="0.5908" stop-color="#83297B"/>
<stop offset="0.8391" stop-color="#632271"/>
<stop offset="1" stop-color="#4D1D68"/>
</radialGradient>
<radialGradient id="paint51_radial_2309_8398" cx="0" cy="0" r="1" gradientUnits="userSpaceOnUse" gradientTransform="translate(19.3421 15.505) scale(14.7166)">
<stop stop-color="#B0358B"/>
<stop offset="0.1561" stop-color="#AB3389"/>
<stop offset="0.3602" stop-color="#9B2F84"/>
<stop offset="0.5908" stop-color="#83297B"/>
<stop offset="0.8391" stop-color="#632271"/>
<stop offset="1" stop-color="#4D1D68"/>
</radialGradient>
<radialGradient id="paint52_radial_2309_8398" cx="0" cy="0" r="1" gradientUnits="userSpaceOnUse" gradientTransform="translate(19.3447 15.5044) scale(14.7178)">
<stop stop-color="#B0358B"/>
<stop offset="0.1561" stop-color="#AB3389"/>
<stop offset="0.3602" stop-color="#9B2F84"/>
<stop offset="0.5908" stop-color="#83297B"/>
<stop offset="0.8391" stop-color="#632271"/>
<stop offset="1" stop-color="#4D1D68"/>
</radialGradient>
<radialGradient id="paint53_radial_2309_8398" cx="0" cy="0" r="1" gradientUnits="userSpaceOnUse" gradientTransform="translate(19.344 15.5089) scale(14.7137)">
<stop stop-color="#B0358B"/>
<stop offset="0.1561" stop-color="#AB3389"/>
<stop offset="0.3602" stop-color="#9B2F84"/>
<stop offset="0.5908" stop-color="#83297B"/>
<stop offset="0.8391" stop-color="#632271"/>
<stop offset="1" stop-color="#4D1D68"/>
</radialGradient>
</defs>
</svg>
